# xmcd
#
# Track frame offsets: 
#        150
#        15475
#        31317
#        42795
#
# Disc length: 773 seconds
#
# Revision: 0
# Processed by: cddbd v1.5.1PL0 Copyright (c) Steve Scherf et al.
# Submitted via: ExactAudioCopy v0.95a5
#
DISCID=22030304
DTITLE=Tania Kernaghan - Goin' Bush (Single)
DYEAR=2001
DGENRE=Country
TTITLE0=Goin' Bush
TTITLE1=The Lad With The Laughing Eyes
TTITLE2=Big Sky Country (Reprise)
TTITLE3=Goin' Bush (Instrumental)
EXTD=
EXTT0=
EXTT1=
EXTT2=
EXTT3=
PLAYORDER=
